<?xml version="1.0" encoding="UTF-8"?>
<svg xmlns="http://www.w3.org/2000/svg" version="1.1" width="300" height="300" viewBox="0 0 300 300"><rect x="0" y="0" width="300" height="300" fill="#ffffff"/><g transform="scale(6.122)"><g transform="translate(0,0)"><path fill-rule="evenodd" d="M8 0L8 4L9 4L9 5L8 5L8 7L9 7L9 6L10 6L10 8L9 8L9 11L10 11L10 12L11 12L11 11L14 11L14 12L15 12L15 13L13 13L13 12L12 12L12 13L11 13L11 14L9 14L9 12L8 12L8 14L9 14L9 15L7 15L7 14L6 14L6 15L5 15L5 14L4 14L4 13L3 13L3 12L4 12L4 11L2 11L2 10L1 10L1 9L2 9L2 8L0 8L0 10L1 10L1 11L0 11L0 13L1 13L1 11L2 11L2 13L3 13L3 14L4 14L4 15L5 15L5 17L3 17L3 18L0 18L0 25L4 25L4 28L5 28L5 30L4 30L4 29L3 29L3 28L2 28L2 27L3 27L3 26L0 26L0 27L1 27L1 29L2 29L2 30L3 30L3 31L4 31L4 32L3 32L3 33L2 33L2 31L0 31L0 32L1 32L1 33L2 33L2 35L3 35L3 33L4 33L4 34L6 34L6 35L8 35L8 36L6 36L6 37L8 37L8 39L7 39L7 38L5 38L5 37L4 37L4 36L3 36L3 37L1 37L1 36L0 36L0 38L1 38L1 40L0 40L0 41L3 41L3 40L4 40L4 39L2 39L2 38L5 38L5 39L7 39L7 40L6 40L6 41L7 41L7 40L9 40L9 38L10 38L10 41L8 41L8 42L10 42L10 44L11 44L11 45L9 45L9 43L8 43L8 45L9 45L9 46L11 46L11 45L12 45L12 46L15 46L15 45L16 45L16 44L15 44L15 42L14 42L14 41L15 41L15 40L14 40L14 39L13 39L13 38L12 38L12 37L14 37L14 38L15 38L15 39L16 39L16 38L17 38L17 39L18 39L18 38L19 38L19 39L20 39L20 40L21 40L21 41L20 41L20 42L18 42L18 43L17 43L17 45L18 45L18 46L19 46L19 45L20 45L20 47L21 47L21 46L22 46L22 48L21 48L21 49L22 49L22 48L23 48L23 49L26 49L26 45L28 45L28 43L29 43L29 44L30 44L30 43L31 43L31 42L32 42L32 46L31 46L31 45L29 45L29 46L28 46L28 47L27 47L27 49L28 49L28 47L29 47L29 49L35 49L35 48L36 48L36 49L38 49L38 48L41 48L41 49L42 49L42 48L41 48L41 45L42 45L42 47L43 47L43 49L44 49L44 47L43 47L43 45L45 45L45 46L47 46L47 47L45 47L45 49L49 49L49 48L48 48L48 47L49 47L49 46L47 46L47 42L48 42L48 40L47 40L47 38L49 38L49 35L47 35L47 34L45 34L45 33L43 33L43 31L41 31L41 32L40 32L40 33L41 33L41 34L43 34L43 35L41 35L41 36L40 36L40 37L41 37L41 38L39 38L39 36L38 36L38 35L39 35L39 32L38 32L38 31L40 31L40 29L39 29L39 28L37 28L37 27L39 27L39 25L40 25L40 27L41 27L41 29L42 29L42 30L43 30L43 29L44 29L44 30L46 30L46 33L47 33L47 30L46 30L46 29L48 29L48 28L49 28L49 27L48 27L48 26L49 26L49 24L47 24L47 22L48 22L48 21L47 21L47 20L49 20L49 19L47 19L47 18L46 18L46 17L47 17L47 16L48 16L48 18L49 18L49 15L46 15L46 17L45 17L45 16L44 16L44 15L45 15L45 14L47 14L47 13L48 13L48 12L47 12L47 9L49 9L49 8L45 8L45 9L44 9L44 8L43 8L43 9L42 9L42 10L40 10L40 9L41 9L41 6L40 6L40 7L39 7L39 5L38 5L38 3L37 3L37 2L39 2L39 4L40 4L40 3L41 3L41 0L40 0L40 1L38 1L38 0L37 0L37 2L35 2L35 1L34 1L34 0L32 0L32 3L31 3L31 4L29 4L29 3L28 3L28 2L29 2L29 1L30 1L30 2L31 2L31 0L28 0L28 1L27 1L27 0L24 0L24 1L22 1L22 0L19 0L19 1L21 1L21 2L23 2L23 3L25 3L25 4L22 4L22 3L21 3L21 4L18 4L18 3L19 3L19 2L16 2L16 0L15 0L15 1L14 1L14 0L13 0L13 2L12 2L12 1L11 1L11 0ZM17 0L17 1L18 1L18 0ZM9 1L9 4L10 4L10 5L11 5L11 4L12 4L12 3L10 3L10 1ZM24 1L24 2L27 2L27 1ZM14 2L14 3L13 3L13 8L12 8L12 6L11 6L11 8L10 8L10 9L11 9L11 8L12 8L12 10L13 10L13 9L14 9L14 10L15 10L15 9L16 9L16 10L17 10L17 11L18 11L18 10L20 10L20 12L18 12L18 13L17 13L17 12L16 12L16 11L15 11L15 12L16 12L16 13L15 13L15 15L16 15L16 14L18 14L18 16L19 16L19 18L18 18L18 19L17 19L17 17L16 17L16 18L15 18L15 17L13 17L13 14L12 14L12 15L11 15L11 16L10 16L10 15L9 15L9 16L7 16L7 15L6 15L6 16L7 16L7 17L5 17L5 19L4 19L4 20L5 20L5 19L6 19L6 20L7 20L7 21L6 21L6 22L8 22L8 18L7 18L7 17L9 17L9 16L10 16L10 17L11 17L11 18L12 18L12 20L11 20L11 19L10 19L10 18L9 18L9 22L10 22L10 23L11 23L11 21L13 21L13 22L12 22L12 24L10 24L10 25L9 25L9 26L11 26L11 25L12 25L12 24L14 24L14 21L13 21L13 19L14 19L14 20L15 20L15 21L18 21L18 20L19 20L19 19L20 19L20 21L19 21L19 22L16 22L16 23L15 23L15 24L19 24L19 25L18 25L18 26L17 26L17 25L16 25L16 26L15 26L15 25L14 25L14 26L15 26L15 28L14 28L14 27L13 27L13 28L10 28L10 29L15 29L15 30L11 30L11 31L12 31L12 32L13 32L13 33L14 33L14 34L12 34L12 33L10 33L10 32L9 32L9 29L8 29L8 28L9 28L9 27L8 27L8 28L7 28L7 27L6 27L6 28L7 28L7 29L6 29L6 30L5 30L5 31L6 31L6 32L4 32L4 33L6 33L6 34L7 34L7 33L6 33L6 32L7 32L7 31L8 31L8 32L9 32L9 33L8 33L8 34L9 34L9 35L10 35L10 38L11 38L11 37L12 37L12 36L11 36L11 34L12 34L12 35L14 35L14 36L15 36L15 37L18 37L18 36L19 36L19 38L20 38L20 39L21 39L21 40L22 40L22 39L23 39L23 40L24 40L24 39L25 39L25 38L24 38L24 39L23 39L23 36L22 36L22 35L24 35L24 37L25 37L25 36L26 36L26 39L27 39L27 36L28 36L28 38L29 38L29 39L28 39L28 41L31 41L31 40L32 40L32 39L33 39L33 41L32 41L32 42L33 42L33 41L34 41L34 43L35 43L35 42L36 42L36 43L37 43L37 48L38 48L38 46L39 46L39 47L40 47L40 43L37 43L37 42L36 42L36 41L35 41L35 40L34 40L34 39L36 39L36 40L37 40L37 41L39 41L39 42L40 42L40 40L42 40L42 39L43 39L43 40L44 40L44 38L41 38L41 39L39 39L39 40L37 40L37 39L38 39L38 36L37 36L37 37L34 37L34 39L33 39L33 38L32 38L32 35L33 35L33 36L34 36L34 35L35 35L35 32L37 32L37 31L38 31L38 29L37 29L37 31L35 31L35 28L33 28L33 29L34 29L34 31L35 31L35 32L34 32L34 35L33 35L33 34L31 34L31 35L30 35L30 36L31 36L31 38L32 38L32 39L30 39L30 38L29 38L29 35L27 35L27 33L25 33L25 32L27 32L27 31L28 31L28 34L29 34L29 32L31 32L31 33L32 33L32 32L31 32L31 31L28 31L28 30L29 30L29 28L31 28L31 30L32 30L32 31L33 31L33 30L32 30L32 27L33 27L33 26L32 26L32 27L31 27L31 26L29 26L29 27L28 27L28 29L27 29L27 30L26 30L26 31L23 31L23 33L25 33L25 34L22 34L22 32L21 32L21 30L22 30L22 29L25 29L25 28L24 28L24 27L23 27L23 28L22 28L22 29L21 29L21 27L22 27L22 26L20 26L20 25L22 25L22 24L21 24L21 22L26 22L26 21L24 21L24 20L23 20L23 21L21 21L21 20L22 20L22 16L21 16L21 15L23 15L23 14L24 14L24 15L25 15L25 16L26 16L26 17L27 17L27 16L29 16L29 15L27 15L27 16L26 16L26 14L24 14L24 13L23 13L23 14L20 14L20 13L22 13L22 10L23 10L23 9L22 9L22 6L21 6L21 5L22 5L22 4L21 4L21 5L20 5L20 6L19 6L19 5L18 5L18 4L17 4L17 7L16 7L16 5L15 5L15 7L14 7L14 4L15 4L15 2ZM27 3L27 4L28 4L28 5L27 5L27 7L28 7L28 9L29 9L29 7L30 7L30 9L32 9L32 8L34 8L34 10L33 10L33 11L32 11L32 12L31 12L31 10L30 10L30 13L32 13L32 14L31 14L31 15L30 15L30 16L31 16L31 18L30 18L30 17L28 17L28 19L26 19L26 18L25 18L25 20L28 20L28 22L29 22L29 23L28 23L28 25L32 25L32 24L34 24L34 23L35 23L35 21L33 21L33 22L32 22L32 21L31 21L31 20L33 20L33 19L31 19L31 18L33 18L33 17L34 17L34 19L37 19L37 21L36 21L36 24L37 24L37 22L38 22L38 21L40 21L40 22L41 22L41 21L43 21L43 20L41 20L41 21L40 21L40 19L38 19L38 16L39 16L39 17L40 17L40 18L41 18L41 17L44 17L44 16L41 16L41 14L42 14L42 15L44 15L44 14L42 14L42 13L40 13L40 12L39 12L39 11L40 11L40 10L39 10L39 11L38 11L38 8L37 8L37 7L38 7L38 6L37 6L37 3L36 3L36 4L34 4L34 6L33 6L33 7L32 7L32 6L31 6L31 5L30 5L30 6L29 6L29 7L28 7L28 5L29 5L29 4L28 4L28 3ZM32 3L32 5L33 5L33 3ZM23 5L23 8L26 8L26 5ZM18 6L18 7L17 7L17 8L16 8L16 9L17 9L17 8L18 8L18 9L19 9L19 6ZM20 6L20 8L21 8L21 6ZM24 6L24 7L25 7L25 6ZM30 6L30 7L31 7L31 8L32 8L32 7L31 7L31 6ZM34 6L34 8L35 8L35 9L37 9L37 8L36 8L36 7L37 7L37 6L36 6L36 7L35 7L35 6ZM4 8L4 9L3 9L3 10L5 10L5 12L6 12L6 13L7 13L7 12L6 12L6 11L8 11L8 10L6 10L6 9L7 9L7 8ZM14 8L14 9L15 9L15 8ZM39 8L39 9L40 9L40 8ZM20 9L20 10L22 10L22 9ZM45 9L45 10L42 10L42 11L45 11L45 13L46 13L46 9ZM10 10L10 11L11 11L11 10ZM24 10L24 11L25 11L25 12L26 12L26 13L27 13L27 14L28 14L28 13L29 13L29 11L28 11L28 13L27 13L27 12L26 12L26 11L25 11L25 10ZM35 10L35 11L33 11L33 12L32 12L32 13L33 13L33 14L32 14L32 15L33 15L33 16L32 16L32 17L33 17L33 16L34 16L34 17L35 17L35 16L36 16L36 18L37 18L37 16L38 16L38 15L39 15L39 12L38 12L38 11L37 11L37 10ZM35 11L35 12L33 12L33 13L34 13L34 16L35 16L35 15L36 15L36 16L37 16L37 15L36 15L36 14L38 14L38 12L37 12L37 13L36 13L36 11ZM18 13L18 14L19 14L19 16L20 16L20 14L19 14L19 13ZM35 13L35 14L36 14L36 13ZM0 15L0 17L1 17L1 15ZM40 16L40 17L41 17L41 16ZM20 17L20 18L21 18L21 17ZM6 18L6 19L7 19L7 18ZM29 18L29 19L30 19L30 18ZM42 18L42 19L44 19L44 18ZM45 18L45 19L46 19L46 18ZM15 19L15 20L17 20L17 19ZM1 20L1 23L2 23L2 24L3 24L3 23L4 23L4 21L3 21L3 20ZM29 20L29 22L30 22L30 23L29 23L29 24L31 24L31 23L32 23L32 22L31 22L31 21L30 21L30 20ZM20 21L20 22L19 22L19 24L20 24L20 22L21 22L21 21ZM46 21L46 22L47 22L47 21ZM2 22L2 23L3 23L3 22ZM33 22L33 23L34 23L34 22ZM5 23L5 26L8 26L8 23ZM23 23L23 26L26 26L26 23ZM39 23L39 24L38 24L38 25L37 25L37 26L36 26L36 25L34 25L34 27L35 27L35 26L36 26L36 27L37 27L37 26L38 26L38 25L39 25L39 24L40 24L40 23ZM41 23L41 26L44 26L44 23ZM45 23L45 26L46 26L46 27L47 27L47 28L48 28L48 27L47 27L47 26L48 26L48 25L47 25L47 26L46 26L46 23ZM6 24L6 25L7 25L7 24ZM24 24L24 25L25 25L25 24ZM42 24L42 25L43 25L43 24ZM16 26L16 28L15 28L15 29L16 29L16 28L17 28L17 29L18 29L18 30L16 30L16 31L15 31L15 32L14 32L14 33L15 33L15 36L16 36L16 33L15 33L15 32L17 32L17 33L20 33L20 34L21 34L21 33L20 33L20 32L19 32L19 31L20 31L20 30L21 30L21 29L20 29L20 30L19 30L19 29L18 29L18 28L19 28L19 27L20 27L20 26L18 26L18 27L17 27L17 26ZM26 27L26 28L27 28L27 27ZM42 27L42 28L45 28L45 29L46 29L46 28L45 28L45 27ZM6 30L6 31L7 31L7 30ZM18 30L18 31L17 31L17 32L18 32L18 31L19 31L19 30ZM48 31L48 33L49 33L49 31ZM41 32L41 33L42 33L42 32ZM37 33L37 35L38 35L38 33ZM17 34L17 35L18 35L18 34ZM25 34L25 35L26 35L26 36L27 36L27 35L26 35L26 34ZM44 34L44 35L43 35L43 36L44 36L44 37L45 37L45 36L46 36L46 37L47 37L47 36L46 36L46 35L45 35L45 34ZM19 35L19 36L20 36L20 35ZM44 35L44 36L45 36L45 35ZM8 36L8 37L9 37L9 36ZM21 36L21 37L20 37L20 38L21 38L21 39L22 39L22 38L21 38L21 37L22 37L22 36ZM11 39L11 41L10 41L10 42L11 42L11 41L14 41L14 40L12 40L12 39ZM29 39L29 40L30 40L30 39ZM45 39L45 41L46 41L46 42L45 42L45 43L46 43L46 42L47 42L47 41L46 41L46 39ZM17 40L17 41L19 41L19 40ZM23 41L23 44L26 44L26 41ZM41 41L41 44L44 44L44 41ZM12 42L12 43L11 43L11 44L13 44L13 45L15 45L15 44L14 44L14 43L13 43L13 42ZM24 42L24 43L25 43L25 42ZM42 42L42 43L43 43L43 42ZM19 43L19 44L18 44L18 45L19 45L19 44L20 44L20 45L21 45L21 43ZM34 44L34 47L33 47L33 48L35 48L35 47L36 47L36 46L35 46L35 44ZM23 45L23 48L25 48L25 45ZM16 46L16 47L13 47L13 48L14 48L14 49L15 49L15 48L16 48L16 49L19 49L19 48L18 48L18 47L17 47L17 46ZM8 47L8 49L12 49L12 47ZM0 0L0 7L7 7L7 0ZM1 1L1 6L6 6L6 1ZM2 2L2 5L5 5L5 2ZM42 0L42 7L49 7L49 0ZM43 1L43 6L48 6L48 1ZM44 2L44 5L47 5L47 2ZM0 42L0 49L7 49L7 42ZM1 43L1 48L6 48L6 43ZM2 44L2 47L5 47L5 44Z" fill="#000000"/></g></g></svg>
