<?xml version="1.0" encoding="UTF-8"?>
<svg xmlns="http://www.w3.org/2000/svg" version="1.1" width="300" height="300" viewBox="0 0 300 300"><rect x="0" y="0" width="300" height="300" fill="#ffffff"/><g transform="scale(6.122)"><g transform="translate(0,0)"><path fill-rule="evenodd" d="M8 0L8 1L9 1L9 0ZM14 0L14 1L13 1L13 2L12 2L12 4L10 4L10 3L11 3L11 2L10 2L10 3L9 3L9 2L8 2L8 5L9 5L9 6L8 6L8 7L9 7L9 6L10 6L10 7L11 7L11 6L10 6L10 5L13 5L13 6L12 6L12 7L13 7L13 8L12 8L12 10L13 10L13 8L15 8L15 9L14 9L14 11L16 11L16 12L15 12L15 13L13 13L13 11L12 11L12 12L11 12L11 13L9 13L9 12L10 12L10 11L11 11L11 8L8 8L8 9L10 9L10 11L9 11L9 12L8 12L8 15L7 15L7 14L5 14L5 15L4 15L4 18L5 18L5 20L4 20L4 19L3 19L3 18L2 18L2 17L3 17L3 13L2 13L2 12L0 12L0 13L2 13L2 14L0 14L0 15L2 15L2 17L0 17L0 27L2 27L2 28L0 28L0 30L1 30L1 31L0 31L0 32L2 32L2 33L1 33L1 35L0 35L0 37L1 37L1 35L2 35L2 38L1 38L1 40L0 40L0 41L3 41L3 40L4 40L4 39L2 39L2 38L4 38L4 37L3 37L3 35L2 35L2 34L3 34L3 32L4 32L4 34L5 34L5 35L7 35L7 36L5 36L5 39L7 39L7 40L6 40L6 41L7 41L7 40L10 40L10 41L8 41L8 42L11 42L11 44L10 44L10 43L9 43L9 45L8 45L8 49L9 49L9 48L10 48L10 49L11 49L11 48L13 48L13 49L14 49L14 48L13 48L13 46L14 46L14 47L15 47L15 48L16 48L16 49L19 49L19 48L20 48L20 47L21 47L21 46L22 46L22 47L23 47L23 45L24 45L24 46L25 46L25 45L26 45L26 46L27 46L27 45L29 45L29 47L27 47L27 48L26 48L26 47L25 47L25 48L24 48L24 49L25 49L25 48L26 48L26 49L27 49L27 48L29 48L29 47L30 47L30 48L31 48L31 49L32 49L32 48L33 48L33 49L35 49L35 48L36 48L36 49L39 49L39 48L42 48L42 47L40 47L40 46L41 46L41 45L42 45L42 46L44 46L44 47L43 47L43 48L45 48L45 49L49 49L49 48L47 48L47 47L49 47L49 46L48 46L48 43L49 43L49 41L48 41L48 40L49 40L49 39L48 39L48 38L46 38L46 37L47 37L47 36L48 36L48 35L46 35L46 37L45 37L45 36L44 36L44 34L43 34L43 36L41 36L41 39L40 39L40 41L39 41L39 40L38 40L38 39L39 39L39 37L40 37L40 35L39 35L39 37L37 37L37 36L38 36L38 33L39 33L39 34L41 34L41 32L42 32L42 33L43 33L43 32L42 32L42 31L43 31L43 30L44 30L44 31L45 31L45 32L44 32L44 33L45 33L45 34L46 34L46 33L45 33L45 32L46 32L46 30L47 30L47 31L48 31L48 32L49 32L49 29L48 29L48 30L47 30L47 28L46 28L46 27L45 27L45 25L46 25L46 26L47 26L47 27L48 27L48 26L49 26L49 24L48 24L48 23L47 23L47 22L48 22L48 21L49 21L49 18L48 18L48 20L47 20L47 21L46 21L46 20L45 20L45 21L46 21L46 22L43 22L43 21L44 21L44 19L43 19L43 18L44 18L44 17L45 17L45 18L47 18L47 17L48 17L48 16L46 16L46 17L45 17L45 16L43 16L43 14L42 14L42 13L43 13L43 12L42 12L42 11L39 11L39 13L37 13L37 12L38 12L38 11L36 11L36 8L37 8L37 6L38 6L38 8L41 8L41 10L43 10L43 9L42 9L42 8L41 8L41 6L40 6L40 7L39 7L39 5L38 5L38 4L37 4L37 3L38 3L38 2L39 2L39 4L40 4L40 3L41 3L41 0L40 0L40 1L38 1L38 0L36 0L36 1L37 1L37 2L35 2L35 1L34 1L34 2L35 2L35 3L33 3L33 4L35 4L35 3L36 3L36 5L35 5L35 6L34 6L34 7L33 7L33 5L32 5L32 4L31 4L31 5L32 5L32 7L33 7L33 9L35 9L35 10L34 10L34 12L33 12L33 10L31 10L31 6L30 6L30 5L28 5L28 4L27 4L27 3L28 3L28 2L27 2L27 3L26 3L26 2L24 2L24 1L26 1L26 0L23 0L23 1L20 1L20 0L19 0L19 2L21 2L21 3L18 3L18 2L14 2L14 1L15 1L15 0ZM17 0L17 1L18 1L18 0ZM28 0L28 1L29 1L29 0ZM30 0L30 3L32 3L32 1L33 1L33 0ZM15 3L15 5L14 5L14 4L13 4L13 5L14 5L14 6L13 6L13 7L14 7L14 6L15 6L15 8L16 8L16 9L15 9L15 10L17 10L17 11L18 11L18 12L21 12L21 11L22 11L22 10L23 10L23 12L24 12L24 9L22 9L22 8L21 8L21 9L20 9L20 6L21 6L21 7L22 7L22 6L21 6L21 5L22 5L22 4L21 4L21 5L17 5L17 3ZM25 3L25 4L26 4L26 3ZM9 4L9 5L10 5L10 4ZM15 5L15 6L16 6L16 7L17 7L17 5ZM23 5L23 8L26 8L26 5ZM27 5L27 8L28 8L28 5ZM18 6L18 8L19 8L19 6ZM24 6L24 7L25 7L25 6ZM29 6L29 7L30 7L30 6ZM35 6L35 7L34 7L34 8L36 8L36 6ZM0 8L0 9L1 9L1 10L2 10L2 9L3 9L3 10L4 10L4 11L3 11L3 12L4 12L4 11L8 11L8 10L4 10L4 8ZM6 8L6 9L7 9L7 8ZM29 8L29 9L26 9L26 10L25 10L25 11L27 11L27 12L26 12L26 14L24 14L24 15L21 15L21 14L22 14L22 13L21 13L21 14L19 14L19 15L18 15L18 13L17 13L17 12L16 12L16 13L17 13L17 14L13 14L13 15L12 15L12 14L11 14L11 16L10 16L10 14L9 14L9 16L8 16L8 17L5 17L5 18L7 18L7 19L6 19L6 20L7 20L7 19L9 19L9 21L8 21L8 22L10 22L10 20L11 20L11 21L12 21L12 23L11 23L11 24L10 24L10 25L9 25L9 26L10 26L10 27L6 27L6 28L8 28L8 32L7 32L7 31L6 31L6 30L7 30L7 29L6 29L6 30L4 30L4 29L1 29L1 30L2 30L2 31L3 31L3 30L4 30L4 32L5 32L5 34L7 34L7 35L9 35L9 36L7 36L7 37L6 37L6 38L7 38L7 39L8 39L8 38L9 38L9 39L11 39L11 41L12 41L12 44L11 44L11 45L9 45L9 47L11 47L11 45L12 45L12 46L13 46L13 43L15 43L15 41L16 41L16 40L17 40L17 43L16 43L16 44L14 44L14 46L15 46L15 47L16 47L16 48L17 48L17 47L18 47L18 48L19 48L19 47L20 47L20 46L21 46L21 45L22 45L22 42L21 42L21 40L24 40L24 39L25 39L25 40L26 40L26 39L28 39L28 37L29 37L29 38L31 38L31 39L33 39L33 38L32 38L32 37L34 37L34 39L35 39L35 40L36 40L36 41L35 41L35 42L34 42L34 43L33 43L33 41L34 41L34 40L33 40L33 41L31 41L31 40L30 40L30 39L29 39L29 40L28 40L28 41L29 41L29 42L27 42L27 43L29 43L29 44L30 44L30 45L32 45L32 46L31 46L31 48L32 48L32 47L33 47L33 48L35 48L35 47L34 47L34 46L35 46L35 43L38 43L38 42L39 42L39 44L37 44L37 45L36 45L36 47L37 47L37 48L38 48L38 47L39 47L39 46L40 46L40 42L39 42L39 41L38 41L38 40L37 40L37 39L35 39L35 38L37 38L37 37L34 37L34 35L35 35L35 36L36 36L36 35L37 35L37 34L36 34L36 33L37 33L37 31L31 31L31 30L32 30L32 29L30 29L30 27L33 27L33 25L34 25L34 28L35 28L35 30L36 30L36 29L37 29L37 30L40 30L40 31L41 31L41 30L42 30L42 29L41 29L41 30L40 30L40 27L37 27L37 26L36 26L36 25L35 25L35 24L36 24L36 23L35 23L35 24L34 24L34 23L33 23L33 24L32 24L32 26L31 26L31 25L29 25L29 24L30 24L30 22L29 22L29 21L26 21L26 18L27 18L27 17L25 17L25 16L26 16L26 14L29 14L29 16L28 16L28 19L29 19L29 20L30 20L30 21L31 21L31 23L32 23L32 21L33 21L33 22L35 22L35 21L33 21L33 17L31 17L31 16L32 16L32 15L31 15L31 16L30 16L30 14L31 14L31 11L29 11L29 10L30 10L30 8ZM44 8L44 9L45 9L45 11L44 11L44 12L45 12L45 13L44 13L44 14L45 14L45 15L48 15L48 14L49 14L49 13L47 13L47 11L46 11L46 10L47 10L47 8ZM48 8L48 10L49 10L49 8ZM17 9L17 10L18 10L18 9ZM19 9L19 10L20 10L20 11L21 11L21 10L22 10L22 9L21 9L21 10L20 10L20 9ZM37 9L37 10L38 10L38 9ZM35 11L35 12L34 12L34 14L33 14L33 16L34 16L34 17L36 17L36 18L35 18L35 19L34 19L34 20L35 20L35 19L38 19L38 18L39 18L39 17L37 17L37 14L36 14L36 13L35 13L35 12L36 12L36 11ZM48 11L48 12L49 12L49 11ZM5 12L5 13L7 13L7 12ZM32 12L32 13L33 13L33 12ZM40 13L40 14L38 14L38 15L39 15L39 16L42 16L42 17L41 17L41 19L39 19L39 20L36 20L36 21L38 21L38 23L37 23L37 24L38 24L38 25L39 25L39 24L40 24L40 23L39 23L39 22L42 22L42 20L43 20L43 19L42 19L42 18L43 18L43 16L42 16L42 15L41 15L41 13ZM34 14L34 16L36 16L36 15L35 15L35 14ZM6 15L6 16L7 16L7 15ZM16 15L16 16L12 16L12 17L11 17L11 19L15 19L15 20L14 20L14 21L15 21L15 23L14 23L14 22L13 22L13 23L14 23L14 24L15 24L15 26L16 26L16 24L17 24L17 26L18 26L18 27L19 27L19 29L20 29L20 26L21 26L21 29L22 29L22 30L23 30L23 31L21 31L21 30L20 30L20 31L18 31L18 30L16 30L16 29L15 29L15 28L17 28L17 29L18 29L18 28L17 28L17 27L15 27L15 28L14 28L14 25L13 25L13 24L11 24L11 25L10 25L10 26L11 26L11 27L13 27L13 28L14 28L14 29L15 29L15 30L14 30L14 31L15 31L15 32L16 32L16 33L14 33L14 32L13 32L13 30L12 30L12 28L10 28L10 29L9 29L9 30L10 30L10 31L9 31L9 32L8 32L8 33L9 33L9 32L10 32L10 31L11 31L11 33L12 33L12 34L13 34L13 35L12 35L12 36L11 36L11 37L10 37L10 38L11 38L11 39L12 39L12 41L13 41L13 42L14 42L14 41L15 41L15 40L16 40L16 39L17 39L17 40L19 40L19 41L18 41L18 43L19 43L19 45L17 45L17 44L16 44L16 47L17 47L17 46L20 46L20 45L21 45L21 43L20 43L20 42L19 42L19 41L20 41L20 39L18 39L18 36L20 36L20 37L19 37L19 38L21 38L21 37L22 37L22 39L23 39L23 37L25 37L25 36L23 36L23 34L25 34L25 32L26 32L26 37L27 37L27 34L31 34L31 33L29 33L29 31L28 31L28 32L26 32L26 31L25 31L25 32L24 32L24 29L26 29L26 30L27 30L27 29L28 29L28 30L30 30L30 29L28 29L28 28L29 28L29 27L27 27L27 26L28 26L28 25L27 25L27 22L26 22L26 21L24 21L24 20L25 20L25 19L24 19L24 20L23 20L23 21L24 21L24 22L22 22L22 20L21 20L21 19L20 19L20 18L19 18L19 17L20 17L20 16L21 16L21 15L20 15L20 16L19 16L19 17L18 17L18 16L17 16L17 15ZM22 16L22 17L21 17L21 18L22 18L22 19L23 19L23 18L24 18L24 17L23 17L23 16ZM29 16L29 18L30 18L30 19L31 19L31 18L30 18L30 16ZM9 17L9 19L10 19L10 17ZM17 17L17 18L15 18L15 19L16 19L16 20L17 20L17 21L16 21L16 23L15 23L15 24L16 24L16 23L17 23L17 24L19 24L19 25L18 25L18 26L19 26L19 25L20 25L20 24L21 24L21 23L22 23L22 22L21 22L21 21L20 21L20 22L18 22L18 21L19 21L19 20L20 20L20 19L19 19L19 18L18 18L18 17ZM22 17L22 18L23 18L23 17ZM1 18L1 19L2 19L2 20L1 20L1 21L2 21L2 22L1 22L1 24L3 24L3 26L2 26L2 25L1 25L1 26L2 26L2 27L3 27L3 26L4 26L4 24L3 24L3 23L2 23L2 22L5 22L5 21L4 21L4 20L3 20L3 19L2 19L2 18ZM17 19L17 20L19 20L19 19ZM2 20L2 21L3 21L3 20ZM39 20L39 21L40 21L40 20ZM6 21L6 22L7 22L7 21ZM17 22L17 23L18 23L18 22ZM5 23L5 26L8 26L8 23ZM19 23L19 24L20 24L20 23ZM23 23L23 26L26 26L26 23ZM41 23L41 26L44 26L44 23ZM6 24L6 25L7 25L7 24ZM24 24L24 25L25 25L25 24ZM42 24L42 25L43 25L43 24ZM12 25L12 26L13 26L13 25ZM4 27L4 28L5 28L5 27ZM22 27L22 28L23 28L23 27ZM24 27L24 28L26 28L26 29L27 29L27 28L26 28L26 27ZM41 27L41 28L42 28L42 27ZM44 27L44 28L43 28L43 29L44 29L44 30L45 30L45 29L46 29L46 28L45 28L45 27ZM37 28L37 29L38 29L38 28ZM10 29L10 30L11 30L11 31L12 31L12 30L11 30L11 29ZM20 31L20 32L18 32L18 34L17 34L17 33L16 33L16 34L17 34L17 35L16 35L16 36L15 36L15 38L14 38L14 37L12 37L12 39L13 39L13 40L15 40L15 38L17 38L17 36L18 36L18 34L19 34L19 33L20 33L20 36L21 36L21 33L20 33L20 32L21 32L21 31ZM38 31L38 32L39 32L39 33L40 33L40 32L39 32L39 31ZM6 32L6 33L7 33L7 32ZM22 32L22 34L23 34L23 33L24 33L24 32ZM33 32L33 33L32 33L32 34L34 34L34 32ZM35 32L35 33L36 33L36 32ZM13 33L13 34L14 34L14 35L15 35L15 34L14 34L14 33ZM47 33L47 34L48 34L48 33ZM9 34L9 35L11 35L11 34ZM35 34L35 35L36 35L36 34ZM29 35L29 37L30 37L30 35ZM31 35L31 37L32 37L32 36L33 36L33 35ZM22 36L22 37L23 37L23 36ZM42 37L42 39L41 39L41 40L43 40L43 39L44 39L44 37ZM13 38L13 39L14 39L14 38ZM25 38L25 39L26 39L26 38ZM45 39L45 44L46 44L46 45L45 45L45 47L47 47L47 46L46 46L46 45L47 45L47 42L48 42L48 41L47 41L47 42L46 42L46 40L48 40L48 39ZM29 40L29 41L30 41L30 40ZM23 41L23 44L26 44L26 41ZM36 41L36 42L37 42L37 41ZM41 41L41 44L44 44L44 41ZM24 42L24 43L25 43L25 42ZM30 42L30 43L31 43L31 44L32 44L32 42ZM42 42L42 43L43 43L43 42ZM37 45L37 46L38 46L38 45ZM0 0L0 7L7 7L7 0ZM1 1L1 6L6 6L6 1ZM2 2L2 5L5 5L5 2ZM42 0L42 7L49 7L49 0ZM43 1L43 6L48 6L48 1ZM44 2L44 5L47 5L47 2ZM0 42L0 49L7 49L7 42ZM1 43L1 48L6 48L6 43ZM2 44L2 47L5 47L5 44Z" fill="#000000"/></g></g></svg>
