<?xml version="1.0" encoding="UTF-8"?>
<svg xmlns="http://www.w3.org/2000/svg" version="1.1" width="300" height="300" viewBox="0 0 300 300"><rect x="0" y="0" width="300" height="300" fill="#ffffff"/><g transform="scale(4.918)"><g transform="translate(0,0)"><path fill-rule="evenodd" d="M8 0L8 4L9 4L9 3L10 3L10 1L12 1L12 2L11 2L11 4L10 4L10 5L8 5L8 7L9 7L9 6L10 6L10 9L11 9L11 10L9 10L9 11L8 11L8 9L7 9L7 8L4 8L4 9L2 9L2 8L0 8L0 11L1 11L1 10L2 10L2 11L3 11L3 14L4 14L4 15L2 15L2 16L3 16L3 17L4 17L4 15L5 15L5 16L6 16L6 17L7 17L7 18L3 18L3 20L2 20L2 17L1 17L1 16L0 16L0 17L1 17L1 20L0 20L0 21L2 21L2 22L1 22L1 25L0 25L0 27L3 27L3 28L4 28L4 30L3 30L3 29L2 29L2 28L0 28L0 29L1 29L1 30L3 30L3 31L2 31L2 32L1 32L1 31L0 31L0 37L2 37L2 36L3 36L3 34L4 34L4 37L3 37L3 38L1 38L1 39L0 39L0 41L1 41L1 42L0 42L0 44L2 44L2 45L1 45L1 46L0 46L0 50L2 50L2 51L0 51L0 53L4 53L4 52L5 52L5 51L7 51L7 52L6 52L6 53L7 53L7 52L8 52L8 51L9 51L9 52L10 52L10 51L11 51L11 50L10 50L10 49L11 49L11 48L13 48L13 47L12 47L12 46L13 46L13 45L14 45L14 46L15 46L15 48L17 48L17 49L15 49L15 50L14 50L14 49L12 49L12 51L14 51L14 52L13 52L13 54L12 54L12 55L13 55L13 56L12 56L12 58L9 58L9 59L8 59L8 61L10 61L10 59L12 59L12 60L11 60L11 61L15 61L15 60L16 60L16 61L17 61L17 60L16 60L16 57L17 57L17 59L18 59L18 58L19 58L19 57L22 57L22 58L20 58L20 59L19 59L19 60L18 60L18 61L19 61L19 60L23 60L23 61L24 61L24 60L23 60L23 59L24 59L24 58L25 58L25 61L28 61L28 59L29 59L29 60L30 60L30 59L29 59L29 58L28 58L28 57L30 57L30 58L32 58L32 57L33 57L33 60L32 60L32 59L31 59L31 60L32 60L32 61L33 61L33 60L34 60L34 57L35 57L35 58L36 58L36 59L35 59L35 61L36 61L36 59L37 59L37 61L38 61L38 60L39 60L39 61L40 61L40 59L41 59L41 61L43 61L43 60L42 60L42 59L44 59L44 61L45 61L45 59L46 59L46 60L47 60L47 61L51 61L51 60L53 60L53 59L54 59L54 58L55 58L55 59L56 59L56 58L58 58L58 61L61 61L61 60L60 60L60 58L61 58L61 55L60 55L60 58L58 58L58 57L59 57L59 52L61 52L61 51L60 51L60 50L57 50L57 49L58 49L58 48L59 48L59 43L60 43L60 42L61 42L61 41L59 41L59 40L60 40L60 39L58 39L58 38L57 38L57 36L58 36L58 37L59 37L59 36L60 36L60 37L61 37L61 36L60 36L60 35L59 35L59 33L60 33L60 34L61 34L61 32L60 32L60 31L58 31L58 32L59 32L59 33L57 33L57 29L58 29L58 28L60 28L60 29L61 29L61 27L59 27L59 26L61 26L61 25L59 25L59 22L60 22L60 21L59 21L59 18L58 18L58 16L59 16L59 15L58 15L58 14L59 14L59 11L55 11L55 10L57 10L57 9L61 9L61 8L57 8L57 9L56 9L56 8L55 8L55 9L54 9L54 11L53 11L53 10L52 10L52 9L51 9L51 5L52 5L52 4L53 4L53 0L51 0L51 2L50 2L50 0L49 0L49 1L48 1L48 0L47 0L47 1L46 1L46 0L44 0L44 3L43 3L43 0L37 0L37 1L39 1L39 3L38 3L38 2L36 2L36 1L32 1L32 2L31 2L31 0L29 0L29 1L30 1L30 2L31 2L31 3L29 3L29 2L28 2L28 0L27 0L27 5L26 5L26 0L25 0L25 2L24 2L24 3L23 3L23 2L22 2L22 4L21 4L21 3L19 3L19 4L20 4L20 7L19 7L19 6L18 6L18 5L16 5L16 4L15 4L15 5L16 5L16 7L15 7L15 6L14 6L14 7L13 7L13 5L14 5L14 3L13 3L13 1L12 1L12 0L10 0L10 1L9 1L9 0ZM14 0L14 1L15 1L15 3L17 3L17 4L18 4L18 1L21 1L21 0L18 0L18 1L17 1L17 2L16 2L16 1L15 1L15 0ZM23 0L23 1L24 1L24 0ZM41 1L41 3L39 3L39 5L38 5L38 3L35 3L35 2L33 2L33 3L32 3L32 4L33 4L33 3L34 3L34 4L35 4L35 5L33 5L33 8L35 8L35 7L36 7L36 6L37 6L37 8L38 8L38 9L37 9L37 10L36 10L36 9L34 9L34 10L33 10L33 12L32 12L32 11L30 11L30 12L29 12L29 11L27 11L27 10L26 10L26 9L25 9L25 10L24 10L24 12L22 12L22 11L21 11L21 10L22 10L22 9L23 9L23 7L24 7L24 8L25 8L25 7L26 7L26 8L27 8L27 9L28 9L28 10L29 10L29 9L28 9L28 8L27 8L27 7L28 7L28 5L27 5L27 7L26 7L26 6L25 6L25 7L24 7L24 5L21 5L21 7L20 7L20 8L18 8L18 9L16 9L16 8L15 8L15 9L13 9L13 8L11 8L11 9L13 9L13 11L15 11L15 13L14 13L14 12L12 12L12 11L9 11L9 13L8 13L8 12L7 12L7 11L6 11L6 10L7 10L7 9L5 9L5 10L4 10L4 12L5 12L5 13L6 13L6 14L5 14L5 15L6 15L6 16L7 16L7 15L6 15L6 14L7 14L7 13L8 13L8 17L9 17L9 18L12 18L12 19L10 19L10 20L9 20L9 19L6 19L6 20L7 20L7 21L6 21L6 22L5 22L5 20L3 20L3 22L2 22L2 25L4 25L4 24L3 24L3 22L5 22L5 23L6 23L6 24L5 24L5 28L7 28L7 27L8 27L8 28L9 28L9 29L10 29L10 31L9 31L9 32L10 32L10 33L11 33L11 34L12 34L12 33L13 33L13 28L14 28L14 34L15 34L15 35L14 35L14 36L13 36L13 35L9 35L9 36L8 36L8 39L6 39L6 40L8 40L8 41L9 41L9 42L7 42L7 41L5 41L5 42L2 42L2 43L4 43L4 45L3 45L3 46L4 46L4 45L5 45L5 46L7 46L7 45L8 45L8 46L9 46L9 47L10 47L10 48L11 48L11 45L13 45L13 44L16 44L16 46L17 46L17 48L20 48L20 49L18 49L18 50L16 50L16 51L15 51L15 52L14 52L14 53L15 53L15 52L17 52L17 51L18 51L18 50L20 50L20 52L21 52L21 54L20 54L20 53L16 53L16 54L14 54L14 57L16 57L16 56L17 56L17 57L18 57L18 56L21 56L21 55L22 55L22 53L23 53L23 52L22 52L22 51L21 51L21 50L20 50L20 49L22 49L22 50L23 50L23 51L24 51L24 52L25 52L25 50L27 50L27 49L26 49L26 47L25 47L25 50L24 50L24 49L23 49L23 48L22 48L22 47L20 47L20 46L19 46L19 45L21 45L21 46L22 46L22 45L23 45L23 46L24 46L24 45L26 45L26 46L27 46L27 48L28 48L28 49L29 49L29 50L28 50L28 52L31 52L31 51L32 51L32 52L33 52L33 51L35 51L35 49L34 49L34 50L33 50L33 48L34 48L34 47L33 47L33 46L32 46L32 44L33 44L33 45L34 45L34 46L35 46L35 45L36 45L36 44L37 44L37 45L38 45L38 44L40 44L40 45L42 45L42 44L44 44L44 43L45 43L45 42L43 42L43 41L44 41L44 40L45 40L45 41L46 41L46 42L47 42L47 44L48 44L48 43L49 43L49 44L50 44L50 45L51 45L51 46L52 46L52 43L51 43L51 42L52 42L52 41L53 41L53 42L54 42L54 43L55 43L55 45L54 45L54 44L53 44L53 45L54 45L54 46L53 46L53 47L50 47L50 46L47 46L47 45L46 45L46 44L45 44L45 45L43 45L43 46L42 46L42 47L43 47L43 48L44 48L44 47L43 47L43 46L45 46L45 45L46 45L46 47L45 47L45 49L46 49L46 51L45 51L45 50L44 50L44 49L43 49L43 50L42 50L42 51L41 51L41 52L39 52L39 54L40 54L40 55L41 55L41 56L40 56L40 57L41 57L41 56L42 56L42 55L43 55L43 56L44 56L44 55L46 55L46 58L47 58L47 60L51 60L51 59L52 59L52 58L53 58L53 57L52 57L52 56L50 56L50 54L48 54L48 53L47 53L47 52L46 52L46 51L49 51L49 53L50 53L50 52L51 52L51 53L52 53L52 51L53 51L53 52L54 52L54 51L55 51L55 49L57 49L57 48L58 48L58 43L57 43L57 44L56 44L56 41L58 41L58 42L59 42L59 41L58 41L58 39L57 39L57 38L56 38L56 36L57 36L57 34L53 34L53 33L51 33L51 34L50 34L50 33L47 33L47 28L46 28L46 26L47 26L47 27L49 27L49 29L48 29L48 32L51 32L51 31L52 31L52 30L51 30L51 31L49 31L49 29L51 29L51 26L50 26L50 24L51 24L51 25L52 25L52 26L53 26L53 23L54 23L54 25L55 25L55 24L56 24L56 23L57 23L57 24L58 24L58 22L59 22L59 21L58 21L58 20L57 20L57 18L56 18L56 19L54 19L54 21L52 21L52 20L51 20L51 19L50 19L50 18L48 18L48 19L50 19L50 20L49 20L49 22L47 22L47 21L48 21L48 20L47 20L47 16L46 16L46 15L47 15L47 11L48 11L48 10L49 10L49 9L46 9L46 10L47 10L47 11L45 11L45 9L44 9L44 8L43 8L43 7L44 7L44 5L43 5L43 3L42 3L42 1ZM47 1L47 2L48 2L48 3L47 3L47 4L46 4L46 5L45 5L45 7L46 7L46 5L47 5L47 8L50 8L50 4L49 4L49 3L50 3L50 2L48 2L48 1ZM45 2L45 3L44 3L44 4L45 4L45 3L46 3L46 2ZM12 3L12 4L13 4L13 3ZM28 3L28 4L29 4L29 3ZM51 3L51 4L52 4L52 3ZM36 4L36 5L35 5L35 6L34 6L34 7L35 7L35 6L36 6L36 5L37 5L37 6L38 6L38 7L39 7L39 9L38 9L38 11L39 11L39 10L40 10L40 11L42 11L42 12L41 12L41 13L42 13L42 15L41 15L41 16L42 16L42 15L43 15L43 16L44 16L44 17L40 17L40 12L38 12L38 13L37 13L37 12L36 12L36 13L35 13L35 12L33 12L33 13L35 13L35 16L34 16L34 15L33 15L33 16L34 16L34 17L35 17L35 19L34 19L34 18L33 18L33 17L31 17L31 16L30 16L30 15L28 15L28 14L29 14L29 12L28 12L28 13L27 13L27 12L26 12L26 11L25 11L25 12L26 12L26 13L27 13L27 14L25 14L25 13L22 13L22 12L21 12L21 13L20 13L20 12L19 12L19 11L20 11L20 10L21 10L21 9L22 9L22 8L20 8L20 9L18 9L18 10L16 10L16 9L15 9L15 11L16 11L16 13L15 13L15 14L14 14L14 13L12 13L12 12L11 12L11 13L12 13L12 14L13 14L13 15L14 15L14 16L16 16L16 15L17 15L17 17L12 17L12 18L13 18L13 19L16 19L16 18L17 18L17 20L12 20L12 21L13 21L13 22L14 22L14 21L15 21L15 22L16 22L16 25L15 25L15 23L13 23L13 24L12 24L12 23L10 23L10 22L11 22L11 20L10 20L10 21L9 21L9 20L8 20L8 21L9 21L9 22L8 22L8 24L6 24L6 25L7 25L7 26L6 26L6 27L7 27L7 26L8 26L8 27L9 27L9 28L10 28L10 29L12 29L12 28L13 28L13 27L14 27L14 28L16 28L16 29L15 29L15 31L16 31L16 32L15 32L15 33L16 33L16 32L17 32L17 34L16 34L16 35L15 35L15 36L16 36L16 37L13 37L13 38L14 38L14 40L13 40L13 39L12 39L12 38L11 38L11 36L9 36L9 37L10 37L10 38L9 38L9 39L8 39L8 40L9 40L9 41L10 41L10 39L12 39L12 40L11 40L11 41L12 41L12 42L13 42L13 43L15 43L15 42L16 42L16 41L18 41L18 43L16 43L16 44L17 44L17 45L19 45L19 43L20 43L20 42L21 42L21 43L22 43L22 44L23 44L23 41L24 41L24 44L26 44L26 45L27 45L27 44L28 44L28 43L29 43L29 45L28 45L28 47L29 47L29 45L31 45L31 44L32 44L32 43L33 43L33 44L35 44L35 42L34 42L34 41L37 41L37 39L35 39L35 37L36 37L36 38L37 38L37 37L38 37L38 38L39 38L39 37L40 37L40 38L41 38L41 39L39 39L39 40L41 40L41 42L40 42L40 41L38 41L38 43L41 43L41 44L42 44L42 43L43 43L43 42L42 42L42 39L44 39L44 38L45 38L45 40L46 40L46 41L50 41L50 42L51 42L51 40L48 40L48 39L47 39L47 38L46 38L46 37L48 37L48 38L49 38L49 34L47 34L47 36L46 36L46 35L44 35L44 37L43 37L43 35L42 35L42 34L46 34L46 31L45 31L45 30L46 30L46 28L45 28L45 27L44 27L44 26L46 26L46 25L47 25L47 26L49 26L49 27L50 27L50 26L49 26L49 24L48 24L48 23L47 23L47 22L45 22L45 21L47 21L47 20L45 20L45 19L46 19L46 17L45 17L45 16L44 16L44 15L43 15L43 14L45 14L45 15L46 15L46 13L45 13L45 12L44 12L44 13L42 13L42 12L43 12L43 8L42 8L42 7L43 7L43 6L42 6L42 7L41 7L41 5L42 5L42 4L40 4L40 5L39 5L39 6L38 6L38 5L37 5L37 4ZM48 4L48 7L49 7L49 4ZM11 5L11 7L12 7L12 5ZM29 5L29 8L32 8L32 5ZM17 6L17 7L18 7L18 6ZM22 6L22 7L23 7L23 6ZM30 6L30 7L31 7L31 6ZM39 6L39 7L40 7L40 10L41 10L41 9L42 9L42 8L41 8L41 7L40 7L40 6ZM52 6L52 7L53 7L53 6ZM30 9L30 10L31 10L31 9ZM18 10L18 11L17 11L17 12L18 12L18 11L19 11L19 10ZM50 11L50 12L49 12L49 14L48 14L48 15L49 15L49 17L50 17L50 16L52 16L52 15L49 15L49 14L50 14L50 12L53 12L53 13L52 13L52 14L53 14L53 13L55 13L55 14L54 14L54 15L53 15L53 16L54 16L54 17L51 17L51 18L52 18L52 19L53 19L53 18L54 18L54 17L56 17L56 16L58 16L58 15L57 15L57 14L56 14L56 13L55 13L55 12L53 12L53 11ZM60 11L60 13L61 13L61 11ZM6 12L6 13L7 13L7 12ZM57 12L57 13L58 13L58 12ZM0 13L0 14L2 14L2 13ZM9 13L9 14L10 14L10 13ZM16 13L16 14L15 14L15 15L16 15L16 14L19 14L19 13ZM30 13L30 14L32 14L32 13ZM23 14L23 16L22 16L22 15L20 15L20 16L19 16L19 18L18 18L18 17L17 17L17 18L18 18L18 20L19 20L19 22L18 22L18 23L17 23L17 25L16 25L16 26L15 26L15 25L14 25L14 24L13 24L13 25L12 25L12 26L10 26L10 25L11 25L11 24L10 24L10 23L9 23L9 24L10 24L10 25L8 25L8 26L9 26L9 27L12 27L12 26L13 26L13 25L14 25L14 26L15 26L15 27L16 27L16 26L17 26L17 28L19 28L19 29L16 29L16 31L17 31L17 30L19 30L19 32L20 32L20 33L18 33L18 34L17 34L17 36L19 36L19 37L16 37L16 39L15 39L15 40L14 40L14 42L15 42L15 41L16 41L16 39L18 39L18 38L20 38L20 39L19 39L19 40L18 40L18 41L20 41L20 40L22 40L22 41L23 41L23 39L21 39L21 38L22 38L22 37L26 37L26 38L25 38L25 39L26 39L26 40L27 40L27 41L29 41L29 40L33 40L33 41L34 41L34 40L35 40L35 39L34 39L34 40L33 40L33 38L30 38L30 37L32 37L32 36L33 36L33 37L34 37L34 36L35 36L35 35L32 35L32 34L31 34L31 35L32 35L32 36L30 36L30 37L29 37L29 38L30 38L30 39L29 39L29 40L28 40L28 39L27 39L27 37L26 37L26 35L25 35L25 36L24 36L24 35L23 35L23 33L24 33L24 34L25 34L25 33L26 33L26 34L27 34L27 33L28 33L28 32L27 32L27 30L28 30L28 29L26 29L26 27L28 27L28 26L30 26L30 27L29 27L29 28L31 28L31 27L32 27L32 28L33 28L33 30L34 30L34 31L35 31L35 32L33 32L33 33L34 33L34 34L35 34L35 32L36 32L36 33L37 33L37 36L38 36L38 37L39 37L39 36L38 36L38 35L39 35L39 34L38 34L38 33L37 33L37 32L39 32L39 31L40 31L40 35L41 35L41 33L42 33L42 31L40 31L40 30L42 30L42 29L43 29L43 28L44 28L44 27L43 27L43 28L41 28L41 26L40 26L40 25L41 25L41 24L43 24L43 26L44 26L44 24L43 24L43 23L45 23L45 24L47 24L47 23L45 23L45 22L44 22L44 19L45 19L45 18L42 18L42 19L43 19L43 23L42 23L42 22L41 22L41 20L40 20L40 19L39 19L39 20L37 20L37 21L40 21L40 22L41 22L41 24L40 24L40 23L39 23L39 22L35 22L35 20L34 20L34 21L33 21L33 20L32 20L32 19L33 19L33 18L32 18L32 19L31 19L31 18L28 18L28 19L27 19L27 17L29 17L29 16L28 16L28 15L26 15L26 16L25 16L25 17L26 17L26 18L24 18L24 17L23 17L23 16L24 16L24 15L25 15L25 14ZM36 14L36 15L37 15L37 16L38 16L38 17L39 17L39 16L38 16L38 15L39 15L39 14L38 14L38 15L37 15L37 14ZM9 15L9 17L11 17L11 16L12 16L12 15ZM54 15L54 16L55 16L55 15ZM26 16L26 17L27 17L27 16ZM60 16L60 18L61 18L61 16ZM20 17L20 18L19 18L19 19L20 19L20 18L21 18L21 21L20 21L20 24L18 24L18 25L17 25L17 26L19 26L19 25L21 25L21 26L20 26L20 27L19 27L19 28L21 28L21 29L19 29L19 30L21 30L21 29L22 29L22 30L23 30L23 32L22 32L22 31L21 31L21 33L20 33L20 34L19 34L19 36L21 36L21 37L20 37L20 38L21 38L21 37L22 37L22 36L23 36L23 35L22 35L22 36L21 36L21 35L20 35L20 34L21 34L21 33L23 33L23 32L24 32L24 33L25 33L25 32L26 32L26 33L27 33L27 32L26 32L26 29L25 29L25 26L27 26L27 25L28 25L28 24L29 24L29 25L30 25L30 26L31 26L31 25L32 25L32 26L33 26L33 28L34 28L34 29L36 29L36 27L37 27L37 29L38 29L38 28L39 28L39 29L40 29L40 26L39 26L39 25L40 25L40 24L39 24L39 23L38 23L38 27L37 27L37 23L36 23L36 24L35 24L35 22L34 22L34 23L32 23L32 20L31 20L31 21L29 21L29 22L31 22L31 25L30 25L30 24L29 24L29 23L28 23L28 24L27 24L27 22L28 22L28 21L27 21L27 20L26 20L26 19L25 19L25 20L26 20L26 21L24 21L24 19L23 19L23 18L22 18L22 17ZM36 17L36 19L38 19L38 18L37 18L37 17ZM22 19L22 20L23 20L23 19ZM28 19L28 20L29 20L29 19ZM50 20L50 23L51 23L51 22L52 22L52 21L51 21L51 20ZM55 20L55 21L54 21L54 23L55 23L55 21L56 21L56 22L58 22L58 21L57 21L57 20ZM16 21L16 22L17 22L17 21ZM21 21L21 22L22 22L22 23L21 23L21 24L22 24L22 25L23 25L23 26L24 26L24 25L27 25L27 24L26 24L26 23L25 23L25 22L22 22L22 21ZM26 21L26 22L27 22L27 21ZM6 22L6 23L7 23L7 22ZM22 23L22 24L24 24L24 23ZM33 24L33 26L35 26L35 25L34 25L34 24ZM56 25L56 26L54 26L54 27L53 27L53 28L55 28L55 27L56 27L56 26L59 26L59 25ZM21 26L21 27L22 27L22 26ZM34 27L34 28L35 28L35 27ZM57 27L57 28L58 28L58 27ZM22 28L22 29L24 29L24 28ZM5 29L5 32L8 32L8 29ZM29 29L29 32L32 32L32 29ZM53 29L53 32L56 32L56 29ZM6 30L6 31L7 31L7 30ZM24 30L24 32L25 32L25 30ZM30 30L30 31L31 31L31 30ZM36 30L36 32L37 32L37 30ZM54 30L54 31L55 31L55 30ZM3 31L3 32L4 32L4 31ZM44 31L44 32L43 32L43 33L44 33L44 32L45 32L45 31ZM11 32L11 33L12 33L12 32ZM1 33L1 34L3 34L3 33ZM4 33L4 34L5 34L5 35L6 35L6 36L5 36L5 37L4 37L4 38L3 38L3 39L2 39L2 40L3 40L3 41L4 41L4 40L5 40L5 38L7 38L7 37L6 37L6 36L7 36L7 35L6 35L6 34L7 34L7 33L6 33L6 34L5 34L5 33ZM29 33L29 34L28 34L28 35L30 35L30 33ZM51 34L51 35L52 35L52 36L53 36L53 35L52 35L52 34ZM1 35L1 36L2 36L2 35ZM54 35L54 38L55 38L55 40L54 40L54 39L53 39L53 37L52 37L52 38L51 38L51 37L50 37L50 39L53 39L53 40L54 40L54 42L55 42L55 41L56 41L56 38L55 38L55 35ZM41 36L41 38L42 38L42 36ZM45 36L45 37L46 37L46 36ZM12 40L12 41L13 41L13 40ZM24 40L24 41L25 41L25 43L26 43L26 44L27 44L27 43L26 43L26 41L25 41L25 40ZM30 41L30 44L31 44L31 41ZM6 42L6 43L7 43L7 44L5 44L5 45L7 45L7 44L9 44L9 46L10 46L10 45L11 45L11 42L10 42L10 44L9 44L9 43L7 43L7 42ZM33 42L33 43L34 43L34 42ZM36 42L36 43L37 43L37 42ZM50 43L50 44L51 44L51 43ZM60 44L60 45L61 45L61 44ZM55 45L55 48L54 48L54 49L52 49L52 50L51 50L51 48L50 48L50 47L49 47L49 48L48 48L48 47L46 47L46 49L47 49L47 50L48 50L48 49L50 49L50 50L51 50L51 51L52 51L52 50L54 50L54 49L55 49L55 48L56 48L56 46L57 46L57 45ZM1 46L1 49L2 49L2 50L3 50L3 49L2 49L2 48L4 48L4 50L7 50L7 51L8 51L8 50L7 50L7 49L9 49L9 48L8 48L8 47L2 47L2 46ZM36 46L36 47L37 47L37 46ZM38 46L38 47L39 47L39 46ZM31 47L31 48L29 48L29 49L32 49L32 48L33 48L33 47ZM40 47L40 49L39 49L39 51L40 51L40 49L41 49L41 47ZM5 48L5 49L7 49L7 48ZM37 48L37 49L36 49L36 51L38 51L38 48ZM47 48L47 49L48 49L48 48ZM29 50L29 51L30 51L30 50ZM32 50L32 51L33 51L33 50ZM56 50L56 52L57 52L57 50ZM3 51L3 52L4 52L4 51ZM42 51L42 52L44 52L44 53L45 53L45 54L46 54L46 52L45 52L45 51ZM11 52L11 53L12 53L12 52ZM34 52L34 53L33 53L33 55L34 55L34 54L35 54L35 55L36 55L36 54L37 54L37 57L36 57L36 58L37 58L37 59L38 59L38 56L39 56L39 55L38 55L38 52L37 52L37 53L36 53L36 54L35 54L35 52ZM8 53L8 54L9 54L9 55L8 55L8 57L11 57L11 55L10 55L10 53ZM26 53L26 54L27 54L27 56L26 56L26 55L25 55L25 54L24 54L24 56L22 56L22 57L28 57L28 54L27 54L27 53ZM29 53L29 56L32 56L32 53ZM40 53L40 54L41 54L41 55L42 55L42 54L43 54L43 53L42 53L42 54L41 54L41 53ZM53 53L53 56L56 56L56 53ZM57 53L57 57L58 57L58 53ZM16 54L16 55L15 55L15 56L16 56L16 55L18 55L18 54ZM30 54L30 55L31 55L31 54ZM47 54L47 58L49 58L49 59L51 59L51 58L52 58L52 57L49 57L49 56L48 56L48 54ZM54 54L54 55L55 55L55 54ZM9 55L9 56L10 56L10 55ZM33 56L33 57L34 57L34 56ZM43 57L43 58L45 58L45 57ZM55 57L55 58L56 58L56 57ZM13 59L13 60L15 60L15 59ZM54 60L54 61L55 61L55 60ZM56 60L56 61L57 61L57 60ZM0 0L0 7L7 7L7 0ZM1 1L1 6L6 6L6 1ZM2 2L2 5L5 5L5 2ZM54 0L54 7L61 7L61 0ZM55 1L55 6L60 6L60 1ZM56 2L56 5L59 5L59 2ZM0 54L0 61L7 61L7 54ZM1 55L1 60L6 60L6 55ZM2 56L2 59L5 59L5 56Z" fill="#000000"/></g></g></svg>
