<?xml version="1.0" encoding="UTF-8"?>
<svg xmlns="http://www.w3.org/2000/svg" version="1.1" width="300" height="300" viewBox="0 0 300 300"><rect x="0" y="0" width="300" height="300" fill="#ffffff"/><g transform="scale(6.122)"><g transform="translate(0,0)"><path fill-rule="evenodd" d="M9 0L9 1L8 1L8 2L9 2L9 1L11 1L11 2L10 2L10 3L11 3L11 2L12 2L12 4L11 4L11 5L10 5L10 4L9 4L9 3L8 3L8 4L9 4L9 5L8 5L8 7L9 7L9 5L10 5L10 7L11 7L11 5L12 5L12 11L11 11L11 10L10 10L10 9L11 9L11 8L10 8L10 9L9 9L9 8L6 8L6 9L5 9L5 8L0 8L0 9L1 9L1 10L2 10L2 9L4 9L4 10L5 10L5 13L7 13L7 14L2 14L2 15L0 15L0 16L2 16L2 17L1 17L1 18L0 18L0 21L3 21L3 22L2 22L2 23L0 23L0 27L1 27L1 28L2 28L2 26L4 26L4 27L3 27L3 28L4 28L4 29L5 29L5 30L3 30L3 29L1 29L1 30L0 30L0 31L1 31L1 30L2 30L2 31L4 31L4 32L1 32L1 34L0 34L0 36L1 36L1 37L0 37L0 38L1 38L1 40L0 40L0 41L3 41L3 40L4 40L4 39L2 39L2 38L3 38L3 35L1 35L1 34L3 34L3 33L4 33L4 34L5 34L5 36L6 36L6 37L4 37L4 38L5 38L5 39L7 39L7 38L8 38L8 37L10 37L10 39L9 39L9 40L8 40L8 43L9 43L9 44L8 44L8 49L10 49L10 46L11 46L11 47L12 47L12 48L11 48L11 49L12 49L12 48L13 48L13 49L14 49L14 47L15 47L15 49L21 49L21 47L20 47L20 45L21 45L21 46L23 46L23 47L25 47L25 48L23 48L23 49L25 49L25 48L26 48L26 49L27 49L27 48L30 48L30 49L32 49L32 48L33 48L33 49L37 49L37 48L38 48L38 47L39 47L39 48L40 48L40 47L39 47L39 46L41 46L41 45L43 45L43 46L45 46L45 44L46 44L46 47L45 47L45 48L44 48L44 49L45 49L45 48L46 48L46 49L49 49L49 47L48 47L48 48L46 48L46 47L47 47L47 44L48 44L48 45L49 45L49 42L46 42L46 43L45 43L45 41L47 41L47 40L49 40L49 34L47 34L47 35L48 35L48 36L46 36L46 33L47 33L47 32L48 32L48 33L49 33L49 32L48 32L48 31L49 31L49 30L47 30L47 32L43 32L43 30L44 30L44 29L43 29L43 28L42 28L42 27L45 27L45 29L48 29L48 27L49 27L49 22L48 22L48 21L47 21L47 20L46 20L46 19L42 19L42 18L44 18L44 16L45 16L45 17L47 17L47 16L45 16L45 15L44 15L44 14L45 14L45 13L46 13L46 15L49 15L49 14L47 14L47 13L48 13L48 12L49 12L49 10L47 10L47 9L48 9L48 8L47 8L47 9L46 9L46 8L45 8L45 9L44 9L44 8L43 8L43 9L42 9L42 8L40 8L40 9L41 9L41 10L38 10L38 9L37 9L37 8L38 8L38 7L39 7L39 5L38 5L38 3L35 3L35 2L36 2L36 1L38 1L38 2L39 2L39 4L40 4L40 3L41 3L41 0L40 0L40 1L38 1L38 0L35 0L35 1L33 1L33 0L32 0L32 3L31 3L31 0L29 0L29 1L28 1L28 0L27 0L27 4L24 4L24 2L25 2L25 0L23 0L23 1L22 1L22 2L21 2L21 3L22 3L22 4L19 4L19 2L20 2L20 0L19 0L19 1L18 1L18 2L17 2L17 3L18 3L18 4L16 4L16 3L15 3L15 4L16 4L16 5L15 5L15 6L14 6L14 4L13 4L13 3L14 3L14 2L13 2L13 1L12 1L12 0ZM14 0L14 1L15 1L15 2L16 2L16 1L15 1L15 0ZM29 1L29 2L30 2L30 1ZM22 2L22 3L23 3L23 2ZM33 2L33 3L32 3L32 4L34 4L34 5L30 5L30 6L29 6L29 8L27 8L27 9L26 9L26 10L23 10L23 9L22 9L22 10L21 10L21 9L20 9L20 8L19 8L19 9L17 9L17 8L18 8L18 6L17 6L17 8L16 8L16 6L15 6L15 7L14 7L14 6L13 6L13 7L14 7L14 9L15 9L15 10L16 10L16 12L15 12L15 13L13 13L13 12L14 12L14 11L12 11L12 13L11 13L11 14L10 14L10 15L9 15L9 17L6 17L6 16L7 16L7 15L6 15L6 16L5 16L5 18L7 18L7 19L4 19L4 15L3 15L3 20L4 20L4 21L6 21L6 22L7 22L7 21L6 21L6 20L7 20L7 19L9 19L9 17L10 17L10 16L11 16L11 17L12 17L12 18L11 18L11 20L8 20L8 22L9 22L9 24L10 24L10 25L9 25L9 26L10 26L10 28L8 28L8 27L6 27L6 28L5 28L5 29L6 29L6 30L7 30L7 31L6 31L6 32L7 32L7 33L6 33L6 34L7 34L7 33L8 33L8 36L9 36L9 34L11 34L11 33L12 33L12 32L13 32L13 31L16 31L16 32L17 32L17 30L18 30L18 29L19 29L19 33L18 33L18 34L17 34L17 33L15 33L15 32L14 32L14 33L15 33L15 34L13 34L13 35L11 35L11 36L10 36L10 37L12 37L12 38L11 38L11 39L12 39L12 40L11 40L11 41L10 41L10 42L9 42L9 43L13 43L13 44L14 44L14 43L13 43L13 42L14 42L14 41L15 41L15 43L16 43L16 44L15 44L15 45L13 45L13 47L14 47L14 46L15 46L15 47L16 47L16 48L18 48L18 47L17 47L17 46L18 46L18 45L20 45L20 44L21 44L21 45L22 45L22 44L21 44L21 43L22 43L22 42L21 42L21 41L18 41L18 43L17 43L17 41L15 41L15 40L16 40L16 39L15 39L15 38L16 38L16 37L18 37L18 36L17 36L17 35L18 35L18 34L19 34L19 38L21 38L21 40L22 40L22 38L23 38L23 37L25 37L25 38L24 38L24 39L23 39L23 40L24 40L24 39L25 39L25 40L26 40L26 39L27 39L27 40L28 40L28 41L27 41L27 43L28 43L28 41L29 41L29 40L30 40L30 39L31 39L31 40L32 40L32 42L29 42L29 44L27 44L27 45L28 45L28 46L26 46L26 45L23 45L23 46L26 46L26 48L27 48L27 47L29 47L29 44L30 44L30 43L31 43L31 44L32 44L32 45L33 45L33 46L30 46L30 47L31 47L31 48L32 48L32 47L34 47L34 48L37 48L37 47L38 47L38 46L39 46L39 43L37 43L37 41L38 41L38 42L40 42L40 41L38 41L38 40L37 40L37 39L36 39L36 38L37 38L37 36L40 36L40 35L38 35L38 34L41 34L41 38L40 38L40 39L39 39L39 40L40 40L40 39L41 39L41 40L42 40L42 39L41 39L41 38L43 38L43 40L44 40L44 38L46 38L46 39L45 39L45 40L47 40L47 38L46 38L46 36L45 36L45 35L44 35L44 36L42 36L42 34L41 34L41 33L43 33L43 34L45 34L45 33L43 33L43 32L42 32L42 30L43 30L43 29L42 29L42 28L40 28L40 27L38 27L38 26L39 26L39 25L40 25L40 24L38 24L38 26L37 26L37 27L36 27L36 25L35 25L35 24L36 24L36 23L35 23L35 22L37 22L37 23L39 23L39 22L42 22L42 21L43 21L43 22L44 22L44 21L45 21L45 22L46 22L46 23L45 23L45 24L47 24L47 21L46 21L46 20L42 20L42 21L39 21L39 19L40 19L40 20L41 20L41 17L40 17L40 16L39 16L39 15L41 15L41 14L42 14L42 15L43 15L43 14L42 14L42 13L40 13L40 12L43 12L43 13L45 13L45 12L47 12L47 10L42 10L42 11L40 11L40 12L39 12L39 13L37 13L37 14L35 14L35 13L34 13L34 14L35 14L35 16L38 16L38 18L37 18L37 19L36 19L36 18L35 18L35 17L33 17L33 16L34 16L34 15L33 15L33 12L32 12L32 15L31 15L31 14L29 14L29 15L31 15L31 16L32 16L32 17L33 17L33 18L30 18L30 19L29 19L29 20L27 20L27 19L26 19L26 18L27 18L27 17L28 17L28 18L29 18L29 16L28 16L28 13L29 13L29 12L28 12L28 11L29 11L29 9L31 9L31 10L30 10L30 11L31 11L31 10L32 10L32 9L33 9L33 10L36 10L36 9L35 9L35 8L37 8L37 7L38 7L38 5L37 5L37 4L36 4L36 5L35 5L35 4L34 4L34 2ZM28 3L28 4L29 4L29 3ZM30 3L30 4L31 4L31 3ZM19 5L19 7L20 7L20 5ZM21 5L21 8L22 8L22 5ZM23 5L23 8L26 8L26 5ZM34 5L34 7L33 7L33 6L32 6L32 7L33 7L33 8L35 8L35 5ZM36 5L36 7L37 7L37 5ZM24 6L24 7L25 7L25 6ZM27 6L27 7L28 7L28 6ZM30 6L30 7L31 7L31 6ZM40 6L40 7L41 7L41 6ZM15 8L15 9L16 9L16 8ZM6 9L6 10L8 10L8 13L10 13L10 12L11 12L11 11L10 11L10 10L9 10L9 9ZM19 9L19 11L21 11L21 10L20 10L20 9ZM27 9L27 10L26 10L26 13L25 13L25 11L24 11L24 12L22 12L22 14L21 14L21 16L18 16L18 14L19 14L19 15L20 15L20 14L19 14L19 13L20 13L20 12L19 12L19 13L18 13L18 12L17 12L17 13L18 13L18 14L17 14L17 16L16 16L16 15L13 15L13 14L11 14L11 16L12 16L12 17L14 17L14 18L15 18L15 21L16 21L16 22L15 22L15 23L16 23L16 25L14 25L14 23L12 23L12 22L14 22L14 21L13 21L13 20L14 20L14 19L12 19L12 20L11 20L11 23L10 23L10 24L13 24L13 25L14 25L14 26L13 26L13 27L12 27L12 26L11 26L11 25L10 25L10 26L11 26L11 31L13 31L13 29L15 29L15 30L16 30L16 29L15 29L15 26L16 26L16 28L17 28L17 29L18 29L18 28L17 28L17 27L18 27L18 26L20 26L20 24L21 24L21 26L22 26L22 27L21 27L21 30L20 30L20 33L21 33L21 34L20 34L20 36L21 36L21 38L22 38L22 37L23 37L23 36L24 36L24 34L25 34L25 35L26 35L26 38L25 38L25 39L26 39L26 38L27 38L27 39L28 39L28 40L29 40L29 39L28 39L28 38L27 38L27 35L28 35L28 36L30 36L30 37L29 37L29 38L31 38L31 39L32 39L32 40L33 40L33 41L34 41L34 40L33 40L33 39L32 39L32 37L31 37L31 35L29 35L29 34L33 34L33 33L32 33L32 32L34 32L34 33L35 33L35 32L34 32L34 31L36 31L36 30L37 30L37 32L36 32L36 33L37 33L37 34L38 34L38 31L40 31L40 32L39 32L39 33L41 33L41 30L42 30L42 29L41 29L41 30L40 30L40 28L39 28L39 30L38 30L38 27L37 27L37 28L35 28L35 26L34 26L34 28L35 28L35 30L33 30L33 29L32 29L32 27L33 27L33 26L32 26L32 25L33 25L33 24L35 24L35 23L34 23L34 22L33 22L33 21L34 21L34 19L35 19L35 18L33 18L33 19L32 19L32 20L31 20L31 19L30 19L30 20L29 20L29 22L26 22L26 19L25 19L25 18L26 18L26 17L27 17L27 15L26 15L26 13L28 13L28 12L27 12L27 10L28 10L28 9ZM17 10L17 11L18 11L18 10ZM22 10L22 11L23 11L23 10ZM37 10L37 11L35 11L35 12L37 12L37 11L38 11L38 10ZM0 11L0 14L1 14L1 12L4 12L4 11ZM6 11L6 12L7 12L7 11ZM9 11L9 12L10 12L10 11ZM43 11L43 12L45 12L45 11ZM15 13L15 14L16 14L16 13ZM23 13L23 15L22 15L22 16L21 16L21 17L20 17L20 20L19 20L19 21L21 21L21 20L23 20L23 22L25 22L25 21L24 21L24 18L25 18L25 17L24 17L24 18L23 18L23 17L22 17L22 16L25 16L25 13ZM38 14L38 15L39 15L39 14ZM32 15L32 16L33 16L33 15ZM14 16L14 17L15 17L15 16ZM17 16L17 17L16 17L16 18L17 18L17 19L18 19L18 16ZM48 16L48 18L47 18L47 19L49 19L49 16ZM21 18L21 19L22 19L22 18ZM38 18L38 19L39 19L39 18ZM1 19L1 20L2 20L2 19ZM16 20L16 21L18 21L18 20ZM32 20L32 21L31 21L31 22L30 22L30 23L29 23L29 24L27 24L27 25L28 25L28 27L29 27L29 28L27 28L27 29L31 29L31 30L28 30L28 31L31 31L31 32L30 32L30 33L31 33L31 32L32 32L32 29L31 29L31 28L30 28L30 27L32 27L32 26L29 26L29 25L31 25L31 23L33 23L33 22L32 22L32 21L33 21L33 20ZM35 20L35 21L37 21L37 22L38 22L38 21L37 21L37 20ZM9 21L9 22L10 22L10 21ZM17 22L17 24L19 24L19 23L20 23L20 22ZM21 22L21 23L22 23L22 22ZM2 23L2 25L1 25L1 26L2 26L2 25L4 25L4 24L3 24L3 23ZM5 23L5 26L8 26L8 23ZM23 23L23 26L26 26L26 23ZM41 23L41 26L44 26L44 23ZM6 24L6 25L7 25L7 24ZM24 24L24 25L25 25L25 24ZM42 24L42 25L43 25L43 24ZM16 25L16 26L18 26L18 25ZM47 25L47 27L46 27L46 28L47 28L47 27L48 27L48 25ZM13 27L13 28L12 28L12 29L13 29L13 28L14 28L14 27ZM22 27L22 29L26 29L26 27L25 27L25 28L23 28L23 27ZM6 28L6 29L7 29L7 28ZM8 30L8 32L10 32L10 33L11 33L11 32L10 32L10 30ZM21 30L21 31L22 31L22 30ZM26 30L26 31L25 31L25 32L24 32L24 31L23 31L23 32L22 32L22 34L21 34L21 35L22 35L22 36L23 36L23 35L22 35L22 34L23 34L23 33L25 33L25 34L26 34L26 35L27 35L27 34L26 34L26 33L27 33L27 32L26 32L26 31L27 31L27 30ZM4 32L4 33L5 33L5 32ZM28 32L28 33L29 33L29 32ZM15 34L15 35L16 35L16 34ZM34 34L34 37L35 37L35 38L34 38L34 39L35 39L35 40L36 40L36 41L35 41L35 42L34 42L34 43L36 43L36 41L37 41L37 40L36 40L36 39L35 39L35 38L36 38L36 36L35 36L35 34ZM6 35L6 36L7 36L7 35ZM13 35L13 36L12 36L12 37L13 37L13 39L14 39L14 37L13 37L13 36L14 36L14 35ZM15 36L15 37L16 37L16 36ZM44 36L44 37L45 37L45 36ZM1 37L1 38L2 38L2 37ZM6 37L6 38L7 38L7 37ZM38 37L38 38L39 38L39 37ZM17 38L17 39L18 39L18 40L19 40L19 39L18 39L18 38ZM6 40L6 41L7 41L7 40ZM13 40L13 41L11 41L11 42L13 42L13 41L14 41L14 40ZM23 41L23 44L26 44L26 41ZM41 41L41 44L44 44L44 41ZM19 42L19 43L21 43L21 42ZM24 42L24 43L25 43L25 42ZM42 42L42 43L43 43L43 42ZM32 43L32 44L33 44L33 43ZM46 43L46 44L47 44L47 43ZM10 44L10 45L11 45L11 46L12 46L12 45L11 45L11 44ZM17 44L17 45L18 45L18 44ZM35 44L35 46L34 46L34 47L37 47L37 46L38 46L38 45L37 45L37 44ZM15 45L15 46L16 46L16 45ZM19 47L19 48L20 48L20 47ZM41 47L41 48L42 48L42 49L43 49L43 47ZM0 0L0 7L7 7L7 0ZM1 1L1 6L6 6L6 1ZM2 2L2 5L5 5L5 2ZM42 0L42 7L49 7L49 0ZM43 1L43 6L48 6L48 1ZM44 2L44 5L47 5L47 2ZM0 42L0 49L7 49L7 42ZM1 43L1 48L6 48L6 43ZM2 44L2 47L5 47L5 44Z" fill="#000000"/></g></g></svg>
